<svg width="48" height="48" viewBox="0 0 48 48" fill="none" xmlns="http://www.w3.org/2000/svg">
    <path fill-rule="evenodd" clip-rule="evenodd"
        d="M18.8937 31.1535H15.405C14.672 31.1535 14.3099 31.1535 14.0891 31.0123C13.8506 30.8577 13.7049 30.6016 13.6872 30.3189C13.6739 30.0584 13.855 29.7404 14.2171 29.1045L22.831 13.9213C23.1976 13.2765 23.383 12.9542 23.6171 12.8349C23.8688 12.7069 24.1691 12.7069 24.4208 12.8349C24.6549 12.9542 24.8403 13.2765 25.2068 13.9213L26.9777 17.0125L26.9867 17.0283C27.3826 17.7199 27.5833 18.0707 27.671 18.4388C27.7681 18.8407 27.7681 19.2646 27.671 19.6665C27.5827 20.0374 27.384 20.3907 26.9821 21.0929L22.4574 29.0912L22.4457 29.1117C22.0472 29.8091 21.8453 30.1626 21.5654 30.4292C21.2607 30.7208 20.8941 30.9326 20.4923 31.052C20.1257 31.1535 19.7151 31.1535 18.8937 31.1535ZM27.7037 31.1535H32.7025C33.44 31.1535 33.811 31.1535 34.0319 31.008C34.2703 30.8534 34.4204 30.5927 34.4338 30.3103C34.4465 30.0582 34.2694 29.7525 33.9223 29.1536C33.9103 29.1332 33.8984 29.1124 33.8861 29.0913L31.3822 24.8078L31.3537 24.7596C31.0018 24.1646 30.8242 23.8641 30.5961 23.748C30.3445 23.6199 30.0485 23.6199 29.7969 23.748C29.5672 23.8672 29.3818 24.1807 29.0152 24.8122L26.5202 29.0958L26.5116 29.1105C26.1464 29.741 25.9638 30.056 25.977 30.3146C25.9947 30.5972 26.1404 30.8577 26.3789 31.0123C26.5953 31.1535 26.9662 31.1535 27.7037 31.1535Z"
        fill="#E84142" />
</svg>