<svg width="48" height="48" viewBox="0 0 48 48" fill="none" xmlns="http://www.w3.org/2000/svg">
    <path
        d="M27.2905 22.7797L29.4343 19.142L35.2127 28.142L35.2154 29.8692L35.1965 17.9838C35.1829 17.6932 35.0286 17.4273 34.7825 17.2705L24.3792 11.2866C24.136 11.167 23.8272 11.1684 23.5843 11.2904C23.5515 11.3069 23.5208 11.3247 23.4913 11.3443L23.455 11.3671L13.3569 17.2188L13.3177 17.2368C13.2672 17.2597 13.2164 17.2894 13.1684 17.3235C12.977 17.4607 12.8498 17.6639 12.8087 17.8915C12.8025 17.926 12.7979 17.9612 12.7959 17.9967L12.8117 27.6821L18.1941 19.3399C18.8716 18.2338 20.3481 17.8773 21.7188 17.8969L23.3273 17.9393L13.8492 33.1394L14.9664 33.7826L24.5581 17.9547L28.7977 17.9393L19.2308 34.1667L23.2176 36.4599L23.6939 36.7336C23.8954 36.8155 24.1329 36.8197 24.3361 36.7462L34.8856 30.6326L32.8686 31.8014L27.2905 22.7797ZM28.1083 34.5602L24.0817 28.2402L26.5398 24.069L31.8281 32.4044L28.1083 34.5602Z"
        fill="#2D374B" />
    <path d="M24.0791 28.2402L28.1059 34.56L31.8255 32.4044L26.5372 24.069L24.0791 28.2402Z" fill="#28A0F0" />
    <path
        d="M35.214 29.8693L35.2113 28.142L29.4328 19.1421L27.2891 22.7798L32.8674 31.8015L34.8844 30.6327C35.0821 30.4721 35.2019 30.2362 35.2145 29.9819L35.214 29.8693Z"
        fill="#28A0F0" />
    <path
        d="M11 31.4982L13.8483 33.1394L23.3264 17.9393L21.7178 17.8969C20.3473 17.8775 18.8708 18.2338 18.1931 19.3399L12.8108 27.6821L11 30.4643V31.4982V31.4982Z"
        fill="white" />
    <path d="M28.797 17.9392L24.5574 17.9547L14.9658 33.7826L18.3185 35.7128L19.23 34.1666L28.797 17.9392Z"
        fill="white" />
    <path
        d="M37.0009 17.9173C36.9656 17.0307 36.4854 16.2191 35.7335 15.7466L25.1939 9.6854C24.4501 9.31089 23.5209 9.31035 22.7756 9.68523C22.6876 9.72959 12.5261 15.623 12.5261 15.623C12.3854 15.6903 12.25 15.7706 12.1226 15.8619C11.4514 16.3431 11.0422 17.0907 11 17.9119V30.4644L12.8108 27.6822L12.795 17.9967C12.7971 17.9613 12.8016 17.9263 12.8077 17.892C12.8487 17.664 12.976 17.4609 13.1675 17.3235C13.2155 17.2893 23.5503 11.3069 23.5832 11.2903C23.8262 11.1684 24.1348 11.1669 24.378 11.2866L34.7814 17.2705C35.0274 17.4273 35.1817 17.6931 35.1954 17.9837V29.9816C35.1828 30.2359 35.0822 30.4718 34.8845 30.6324L32.8675 31.8011L31.8268 32.4043L28.1072 34.56L24.3349 36.746C24.1318 36.8194 23.8941 36.8153 23.6928 36.7334L19.2297 34.1664L18.318 35.7126L22.3289 38.0218C22.4615 38.0973 22.5797 38.1641 22.6767 38.2187C22.8268 38.3029 22.9292 38.3591 22.9653 38.3767C23.2504 38.5152 23.6604 38.5957 24.0301 38.5957C24.3689 38.5957 24.6994 38.5336 25.0121 38.4111L35.9688 32.0659C36.5977 31.5786 36.9677 30.8438 37.0009 30.0479V17.9173Z"
        fill="#96BEDC" />
</svg>