<svg width="48" height="48" viewBox="0 0 48 48" fill="none" xmlns="http://www.w3.org/2000/svg">
    <path
        d="M29.7715 20.2208C29.3533 19.9743 28.8096 19.9743 28.3497 20.2208L25.0876 22.1104L22.8711 23.3428L19.6092 25.2324C19.191 25.4789 18.6473 25.4789 18.1873 25.2324L15.5944 23.7535C15.1762 23.5071 14.8835 23.0552 14.8835 22.5623V19.6456C14.8835 19.1527 15.1344 18.7008 15.5944 18.4543L18.1455 17.0166C18.5637 16.7701 19.1073 16.7701 19.5674 17.0166L22.1184 18.4543C22.5366 18.7008 22.8293 19.1527 22.8293 19.6456V21.5353L25.0458 20.2618V18.3722C25.0458 17.8792 24.7949 17.4274 24.3349 17.1809L19.6092 14.4696C19.191 14.2232 18.6473 14.2232 18.1873 14.4696L13.3779 17.1809C12.9179 17.4274 12.667 17.8792 12.667 18.3722V23.8357C12.667 24.3287 12.9179 24.7806 13.3779 25.0271L18.1873 27.7383C18.6055 27.9847 19.1492 27.9847 19.6092 27.7383L22.8711 25.8897L25.0876 24.6163L28.3497 22.7677C28.7678 22.5212 29.3115 22.5212 29.7715 22.7677L32.3226 24.2054C32.7407 24.4519 33.0335 24.9038 33.0335 25.3968V28.3133C33.0335 28.8064 32.7826 29.2582 32.3226 29.5047L29.7715 30.9835C29.3533 31.23 28.8096 31.23 28.3497 30.9835L25.7986 29.5458C25.3804 29.2993 25.0876 28.8474 25.0876 28.3545V26.4648L22.8711 27.7383V29.6279C22.8711 30.1208 23.1221 30.5727 23.5821 30.8192L28.3915 33.5304C28.8096 33.7769 29.3533 33.7769 29.8133 33.5304L34.6227 30.8192C35.0409 30.5727 35.3337 30.1208 35.3337 29.6279V24.1643C35.3337 23.6714 35.0827 23.2196 34.6227 22.9731L29.7715 20.2208Z"
        fill="#8F5DF9" />
</svg>